<?xml version="1.0" encoding="UTF-8" standalone="no"?>
<svg
   xmlns:dc="http://purl.org/dc/elements/1.1/"
   xmlns:cc="http://creativecommons.org/ns#"
   xmlns:rdf="http://www.w3.org/1999/02/22-rdf-syntax-ns#"
   xmlns:svg="http://www.w3.org/2000/svg"
   xmlns="http://www.w3.org/2000/svg"
   xmlns:sodipodi="http://sodipodi.sourceforge.net/DTD/sodipodi-0.dtd"
   xmlns:inkscape="http://www.inkscape.org/namespaces/inkscape"
   version="1.1"
   width="100%"
   height="100%"
   viewBox="0 0 1000 600"
   id="svg12"
   sodipodi:docname="logo.svg"
   inkscape:version="0.92.5 (2060ec1f9f, 2020-04-08)">
  <metadata
     id="metadata18">
    <rdf:RDF>
      <cc:Work
         rdf:about="">
        <dc:format>image/svg+xml</dc:format>
        <dc:type
           rdf:resource="http://purl.org/dc/dcmitype/StillImage" />
      </cc:Work>
    </rdf:RDF>
  </metadata>
  <defs
     id="defs16" />
  <sodipodi:namedview
     pagecolor="#ffffff"
     bordercolor="#666666"
     borderopacity="1"
     objecttolerance="10"
     gridtolerance="10"
     guidetolerance="10"
     inkscape:pageopacity="0"
     inkscape:pageshadow="2"
     inkscape:window-width="864"
     inkscape:window-height="480"
     id="namedview14"
     showgrid="false"
     inkscape:zoom="0.55625733"
     inkscape:cx="865.30841"
     inkscape:cy="218.8143"
     inkscape:window-x="0"
     inkscape:window-y="0"
     inkscape:window-maximized="0"
     inkscape:current-layer="g10" />
  <rect
     width="1000"
     height="600"
     x="0"
     y="0"
     fill="000000"
     id="rect2" />
  <g
     id="g10"
     transform="translate(162.71187,-147.45763)">
    <rect
       width="333.33334"
       height="333.33334"
       rx="13.333333"
       ry="13.333333"
       y="292.23645"
       fill="#66220155"
       transform="matrix(0.46293862,0,0,0.46293862,-26.451217,87.556033)"
       x="376.40366"
       id="rect4" />
    <path
       d="m 402.76257,725.15538 h 1.82174 l 0.68316,1.92891 h -1.64761 l 0.20092,0.48223 q 0,0.0938 0.0402,0.24112 0.0536,0.14734 0.0536,0.24111 v 0 h -0.57599 v 0.20093 q 0,1.15199 -0.8707,1.72798 v 0 h 0.0938 q -0.48223,0.38846 -1.24575,0.38846 v 0 h -17.84243 q -0.68316,0 -1.1118,-0.14735 -0.44204,-0.14735 -0.92427,-0.24111 v 0 q -0.76353,-0.38846 -1.15199,-0.91087 -0.38846,-0.53581 -0.576,-1.01804 v 0 h 0.48223 v -0.0938 l -0.20093,-0.38846 -0.18753,-0.48223 h 1.63422 l -0.66976,-1.92891 h -1.83514 l -0.2813,-0.96445 h 3.95159 l -0.68316,-1.92891 h -1.15199 l -0.29469,-0.66977 h -20.7358 l -0.18753,0.66977 h -1.15199 l -0.68315,1.92891 h -1.05822 l -0.38846,0.96445 h -0.576 l -0.66976,1.92891 h 0.0938 l -0.20093,0.48223 -0.0938,0.38846 -0.0938,0.0938 h -0.48223 q -0.18753,0.48223 -0.57599,1.01804 -0.38846,0.52241 -1.16538,0.91087 v 0 h 2.89337 q -0.37507,0.0938 -0.8573,0.24111 -0.48223,0.14735 -1.16538,0.14735 v 0 h -17.84243 q -0.76352,0 -1.15198,-0.38846 v 0 h -2.89337 q -0.96446,-0.66976 -0.96446,-1.72798 v 0 -0.20093 h 0.57599 q 0,-0.2813 0.0938,-0.48223 v 0 l 0.0938,-0.48223 h -0.0938 l 0.68316,-1.92891 h 0.57599 l 0.38846,-0.96445 h 1.05823 l 0.66976,-1.92891 h 1.05822 l 0.68315,-1.92891 h -3.76405 l 0.38846,-0.96446 h -0.29469 l 0.48222,-1.44668 h 0.96446 l 0.20093,-0.48223 h -2.12984 l 0.68315,-1.92891 h 3.26843 l 0.2947,-0.96445 h -2.98713 l 0.18753,-0.48223 h 0.48223 l 0.68316,-1.92892 h -0.2947 l 0.48223,-1.44668 h 0.38846 l 0.66976,-1.92891 h 1.25915 l 0.48223,-1.44668 0.18753,-0.48223 h 4.82228 l 0.20093,-0.48223 h -0.2947 l 0.48223,-1.44668 h -5.39827 l 0.66976,-1.92891 h 1.74138 l 0.18753,-0.48223 h -1.05822 l 0.18753,-0.48223 h 3.0943 l 0.66976,-1.92891 h -3.76406 l 0.38846,-0.96446 h 1.44668 l 0.68316,-1.9289 h -0.87069 l 0.48223,-1.44669 h 1.05822 l 0.66976,-1.92891 h -0.28129 l 0.18753,-0.48223 h -2.21022 l 0.37507,-0.96445 h 2.12984 l 0.48223,-1.44669 h -0.96445 l 0.0938,-0.48222 h 1.74138 l 0.66976,-1.92891 h -2.11644 l 0.48222,-1.44669 h -1.07161 l 0.29469,-0.96445 h -6.65742 l 0.29469,-0.96446 h -1.25915 l 0.68316,-1.92891 h -1.25915 l 0.57599,-1.44668 h 3.76406 l 0.66976,-1.92891 h 9.64455 l 0.48223,-1.44668 h -4.62135 l 0.38846,-0.96446 h 3.56313 l 0.66976,-1.92891 h -3.17466 l 0.48222,-1.44668 h 2.02268 l 0.66976,-1.92892 h -0.2813 l 0.66976,-1.92891 h -2.69243 l 0.0938,-0.48222 h 9.25609 l 0.66976,-1.92892 h -0.28129 l 0.18753,-0.48223 h -3.3756 l 0.38846,-1.24575 0.2947,-0.68315 h 0.96446 l 0.57599,-0.96446 h -0.29469 q 0.48222,-0.66976 1.35291,-1.1118 0.87069,-0.42865 2.11644,-0.42865 v 0 h 20.93672 q 1.24576,0 2.11645,0.42865 0.87069,0.44204 1.35292,1.1118 v 0 h 0.38846 l 0.57599,0.96446 h -0.96445 q 0.18753,0.38846 0.18753,0.68315 v 0 l 0.48223,1.24575 h 3.37559 l 0.10716,0.48223 h 0.2813 l 0.68316,1.92892 H 380.098 l 0.18753,0.48222 h 2.70584 l 0.66976,1.92891 h 0.2947 l 0.66975,1.92892 h -2.02267 l 0.48223,1.44668 h 3.17466 l 0.68316,1.92891 h -3.57652 l 0.38846,0.96446 h 4.63474 l 0.48223,1.44668 h -9.64456 l 0.66976,1.92891 h -3.76405 l 0.48222,1.44668 h 1.16539 l 0.66976,1.92891 h -3.76405 l 0.38846,0.96446 h 15.33751 l 0.2947,0.96445 h -0.77692 l 0.48222,1.44669 h -1.9289 l 0.66976,1.92891 h -2.30398 l 0.0938,0.48222 h 3.46935 l 0.48223,1.44669 h 0.0938 l 0.38846,0.96445 h -3.18806 l 0.20093,0.48223 h 3.0809 l 0.68316,1.92891 h 1.05822 l 0.48222,1.44669 h -0.29469 l 0.68316,1.9289 h 1.54044 l 0.38847,0.96446 h -2.7996 l 0.66976,1.92891 h 1.92891 l 0.0938,0.48223 h -0.48222 l 0.20092,0.48223 h -1.74137 l 0.57599,1.92891 h 5.50543 l 0.48223,1.44668 h 0.2813 l 0.20093,0.48223 h -4.91604 l 0.18753,0.48223 h 0.0938 l 0.48222,1.44668 h -1.24575 l 0.66976,1.92891 h -0.48223 l 0.576,1.44668 h 0.29469 l 0.66976,1.92892 h -0.48223 l 0.20093,0.48223 h 2.98713 l 0.38847,0.96445 h -3.3756 l 0.66976,1.92891 h 2.11644 l 0.20093,0.48223 h -0.96445 l 0.57599,1.44668 h 0.18753 l 0.38847,0.96446 h 3.76405 l 0.66976,1.92891 h 1.16539 l 0.66976,1.92891 h -3.95159 z m -38.20316,-39.06044 -0.2813,0.96445 h 1.15199 l -0.48223,1.44669 h 3.95159 l -0.48223,-1.44669 h 0.77693 l -0.2947,-0.96445 z m 1.92891,4.34005 h 0.96446 l -0.48223,-1.63422 z m -1.72798,11.57346 h -3.09429 l -0.18754,0.48223 h 1.05822 l -0.0938,0.29469 h 10.9037 l -0.10716,-0.29469 h 0.48223 l -0.0938,-0.48223 h -1.92891 l -0.57599,-1.92891 h 2.7996 l -0.2947,-0.96446 h -1.63422 l -0.57599,-1.9289 h 0.2813 l -0.38846,-1.44669 h -1.05822 l -0.57599,-1.92891 h -3.0809 l -0.20093,-0.48223 h 3.18806 l -0.2947,-0.96445 h -0.0938 l -0.48223,-1.44669 h -3.0809 l -0.38846,1.44669 h -2.12984 l -0.2813,0.96445 h 2.11644 l -0.0938,0.48223 h 0.29469 l -0.58939,1.92891 h -1.05822 l -0.48223,1.44669 h 0.87069 l -0.57599,1.9289 h -1.44668 l -0.2947,0.96446 h 3.76406 z m 105.40693,-10.12678 v 0 h -4.71512 q -0.10712,0.38846 -0.20092,0.72334 -0.0937,0.33488 -0.28128,0.72334 v 0 h 2.69241 l -0.28128,0.96446 h -2.31738 q -0.29471,0.87069 -0.77691,1.92891 v 0 h -1.44668 q -0.38845,0.96446 -1.05823,1.92891 v 0 h 0.18754 q -0.37508,0.48223 -0.66978,0.96445 -0.29466,0.48223 -0.66974,0.96446 v 0 h 10.40807 l -1.24577,1.44669 h -8.58631 q -0.38845,0.48222 -0.96444,0.96445 -0.57603,0.48223 -1.05823,0.96445 v 0 h 1.24572 q -0.38845,0.38847 -0.91083,0.72335 -0.53585,0.33488 -1.01805,0.72334 v 0 h 3.18807 l -0.38849,0.29469 0.87069,1.63422 h -2.31738 l 1.05824,1.92891 h 0.2947 l 0.28128,0.48223 h -0.0937 l 0.96444,1.92891 h 0.96444 l 0.57603,0.96445 h -7.42095 l 0.7769,1.44669 h 6.75118 l 0.57603,0.96446 h -2.12984 l 0.7769,1.44668 h 9.5508 l 1.05823,1.92891 h -6.36272 l 0.76352,1.44668 h -2.98716 l 1.54048,2.89337 h 0.68316 l 0.57599,0.96445 h -0.29471 l 0.29471,0.48223 h -4.52759 l 1.05823,1.92891 0.18749,0.48223 h -2.98711 l 0.48224,1.05822 q 0.29466,0.38846 0.29466,0.87069 v 0 h 2.02272 v 0.20093 q 0,1.05822 -0.87069,1.72798 v 0 h 2.59866 q -0.48225,0.38846 -1.24577,0.38846 v 0 h -19.77132 q -0.57599,0 -1.01805,-0.14735 -0.42864,-0.14735 -0.91088,-0.24111 v 0 h -2.61204 q -0.76352,-0.38846 -1.29937,-0.96445 -0.52238,-0.576 -0.81709,-0.96446 v 0 h -1.92893 l -0.18753,-0.2813 -0.68316,-1.64761 h 3.09433 l -0.29471,-0.48223 h -9.16234 v 0.48223 h -4.91603 v 1.92891 h 7.80939 q -0.18753,1.35292 -1.25914,1.92891 v 0 h -0.66974 q -0.66978,0.38846 -1.44668,0.38846 v 0 h -18.90066 q -0.87069,0 -1.35292,-0.38846 v 0 h 0.77692 q -1.07162,-0.57599 -1.25915,-1.92891 v 0 H 400.539 q 0,-0.0938 -0.0536,-0.14735 -0.0402,-0.0402 -0.0402,-0.13395 v 0 -1.64761 h 4.91605 v -0.48223 h 9.64455 v -1.92891 h -10.31432 v -0.48223 h 6.06804 v -0.96445 h -2.02268 v -1.44669 h 3.37559 v -1.44668 h -5.49203 v -1.44668 h 7.42094 v -1.92891 h -4.24628 v -1.44668 h -0.0938 v -0.48223 h -0.576 v -0.48223 h -2.61206 v -1.44669 h 3.28182 v -0.96445 h -0.87069 v -1.92891 h 0.10716 v -0.48223 h -0.29469 v -1.92891 h 2.31737 v -1.92891 h -3.28183 v -1.44669 h -1.25914 v -1.9289 h 8.49256 v -1.44669 h -10.42148 v -1.92891 h -0.18753 v -1.92891 h 1.44668 v -1.92891 h 2.22361 v -0.96446 h -2.70583 v -1.44668 h 4.72851 v -0.96446 h 6.93872 v -0.96445 h -9.55079 v -0.48223 h 0.48223 v -0.48223 h 0.87068 v -0.48222 h 0.0938 v -0.96446 h -0.18753 v -1.44668 h 0.38846 v -1.92891 h -0.48223 v -0.96446 h 0.48223 v -1.44668 h -0.38846 v -0.48223 h 0.29469 v -0.96446 h -0.10716 v -0.48222 h -0.37506 v -0.48223 h 0.85729 v -1.44668 h 0.77692 v -1.44669 h -4.52758 v -1.92891 h 1.05822 v -1.92891 h -0.57599 v -1.44668 h 2.59867 v -1.44668 h 0.96446 v -1.44669 h -1.74138 v -0.96446 h 0.68315 v -0.48222 h 0.18753 v -1.44668 h 0.20093 q 0,-1.05823 0.8573,-1.92892 v 0 h 5.21074 q 0.57599,-0.57599 1.64761,-0.57599 v 0 h 28.54521 q 4.13913,0 7.71566,0.57599 v 0 h -5.117 q 3.8578,0.576 7.3272,1.92892 v 0 h -0.18753 q 1.63422,0.57599 3.18802,1.44668 v 0 h -0.20091 l 0.87069,0.48222 h -0.7769 q 0.4822,0.20093 0.83047,0.48223 0.33489,0.2947 0.72334,0.48223 v 0 h 1.72801 q 0.4822,0.38846 0.96444,0.72334 0.48224,0.33489 0.87069,0.72335 v 0 h -0.96444 q 0.4822,0.38846 0.81709,0.72334 0.33489,0.33488 0.72334,0.72334 v 0 h -2.59866 q 0.38845,0.38846 0.66974,0.72334 0.2947,0.33488 0.57603,0.72334 v 0 h 0.4822 q 0.77695,0.96446 1.35293,1.92891 v 0 h -0.96448 q 0.2947,0.38846 0.53585,0.92427 0.2411,0.52241 0.52238,1.00464 v 0 h 4.54101 l 0.57599,1.44669 h -0.77695 q 0.10717,0.38846 0.24114,0.72334 0.14731,0.33488 0.2411,0.72334 v 0 h -0.96444 l 0.20092,0.48223 h 0.38845 q 0.0938,0.20092 0.0938,0.48222 v 0 l 0.28128,0.96446 h 0.29471 q 0,0.29469 0.0937,0.48223 v 0 h 0.0938 q 0.10712,0.38846 0.1473,0.72334 0.0536,0.33488 0.0536,0.72334 v 0 h -1.25915 q 0,0.20093 0,0.48223 0,0.29469 0.0937,0.48223 v 0 h 0.5895 q 0,0.48222 0.0403,0.96445 0.0536,0.48223 0.0536,0.96446 v 0 0.96445 h 0.57599 v 0.48223 h -0.57599 v 0.96446 h -0.96444 q 0,0.0938 -0.0536,0.20092 -0.0403,0.0938 -0.0403,0.2813 v 0 H 469.31 q 0,0.0938 -0.0536,0.20093 -0.0536,0.0938 -0.0536,0.2813 v 0 h 4.54097 q -0.0937,0.20093 -0.0937,0.48223 v 0 h 1.24572 l -0.0937,0.96445 h -4.4338 q -0.20096,0.576 -0.20096,0.96446 z m -38.5782,-2.41114 v 0.48223 h 9.55079 v 0.96445 h -6.93871 v 0.0938 h 7.03246 q 0.68316,0 1.07161,-0.0938 v 0 h 4.43384 q 1.05823,-0.2813 1.92893,-0.96445 v 0 h -1.35294 l 0.48224,-0.48223 h -4.52758 q 0.28128,-0.2813 0.37507,-0.48223 v 0 h -0.96449 l 0.29471,-0.48222 h 0.96444 l 0.29471,-0.96446 h 0.48224 q 0.0937,-0.18753 0.0937,-0.48223 v 0 h -0.57598 l 0.0938,-0.96445 q 0,-0.96446 -0.29471,-1.92891 v 0 h -0.57599 q -0.0938,-0.18754 -0.14735,-0.48223 -0.0403,-0.2813 -0.24115,-0.48223 v 0 h 1.35294 q -0.38845,-0.76353 -1.05823,-1.44668 v 0 h -0.20092 q -0.28128,-0.2813 -0.66977,-0.48223 v 0 h -0.29467 q -0.96448,-0.48223 -2.02271,-0.48223 v 0 h -7.03246 v 0.48223 h -0.2947 v 0.48223 h 0.38845 v 1.44668 h -0.4822 v 0.96446 h 0.4822 v 1.92891 h -0.38845 v 1.44668 h 0.18753 v 0.96446 h -0.0938 v 0.48222 h -0.87065 v 0.48223 z m 2.31738,22.6647 h 5.30449 l -0.38845,-0.96445 h -1.05824 l -0.76352,-1.83514 h -3.96498 v 1.83514 h 0.8707 z m -2.02267,0 h -1.25915 v 1.44669 h 1.83513 z m 7.8094,2.41115 -0.28133,-0.48223 -0.20091,-0.48223 h -5.97427 v 0.48223 h 0.57599 v 0.48223 h 0.0938 v 1.44668 h 4.24626 v 1.92891 h -7.42096 v 1.44668 h 5.49208 v 1.44668 h -3.37561 v 1.44669 h 2.02267 v 0.96445 h -6.06802 v 0.48223 h 13.59614 l -0.29471,-0.48223 h 0.29471 l -0.48224,-0.96445 h -0.77691 l -0.57598,-1.44669 -0.66978,-1.44668 h 3.0809 l -0.66978,-1.44668 h 6.26897 l -0.87069,-1.92891 h -9.55079 l -0.57599,-1.44668 z m 102.32605,-44.36496 v 1.44668 H 524.083 v 1.92892 h 6.84497 v 1.44668 h 7.43437 v 1.44668 h -0.20096 v 1.44669 h 2.79962 v 1.92891 h -10.51523 v 0.48222 h -2.02272 v 0.68316 q 0,0.66976 -0.28128,1.24576 v 0 h 6.84496 q -0.68315,1.35291 -2.22363,1.35291 v 0 h -16.00726 v 0.0938 h 0.96444 v 1.92891 h 0.18754 v 1.92891 h -0.4822 v 1.92891 h -1.24577 v 1.44668 h 4.8223 v 0.96446 h -4.05877 v 1.44668 h -2.11647 v 1.92891 h 3.67032 v 0.96446 h -0.68316 v 1.92891 h -0.66978 v 1.92891 h -1.16535 v 1.92891 h -1.05823 v 1.44668 h 3.57652 v 1.44669 h -1.44668 v 1.92891 h 0.57599 v 0.48223 h 0.66973 v 0.96445 h 4.82229 v 1.44669 h -3.28182 v 1.92891 h 1.44669 v 1.92891 h -4.04535 v 1.92891 h 1.63422 v 0.96445 h 0.68316 v 1.44669 h 1.54043 v 1.92891 h -0.57599 v 1.44668 h -2.50491 v 1.44668 h -0.29471 v 0.96446 h -0.0937 v 1.44668 h 1.05823 v 1.44669 h -0.8707 v 1.16538 q 0,0.48223 -0.0938,0.76353 v 0 h -0.96444 q -0.29471,0.96445 -1.05823,1.44668 v 0 h 0.18754 q -0.48225,0.38846 -1.3529,0.38846 v 0 h -19.28912 q -0.76352,0 -1.44668,-0.38846 v 0 h -0.18754 q -0.66978,-0.48223 -1.05823,-1.44668 v 0 h 0.87069 q -0.10717,-0.2813 -0.10717,-0.76353 v 0 -1.16538 h 0.8707 v -1.44669 h -1.05823 v -1.44668 h 0.0938 v -0.96446 h 0.29471 v -1.44668 h 2.50486 v -1.44668 h 0.57599 V 717.922 h -1.54043 v -1.44669 h -0.66978 v -0.96445 h -1.64759 v -1.92891 h 4.05876 v -1.92891 h -1.44668 v -1.92891 h 3.26844 v -1.44669 h -4.82229 v -0.96445 h -0.66978 v -0.48223 h -0.57599 v -1.92891 h 1.44668 v -1.44669 h -3.57652 v -1.44668 h 1.07161 v -1.92891 h 1.15202 v -1.92891 h 0.66973 v -1.92891 h 0.68316 v -0.96446 h -3.67027 v -1.92891 h 2.12984 v -1.44668 h 4.04535 v -0.96446 h -4.8223 v -1.44668 h 1.25915 v -1.92891 h 0.48224 v -1.92891 h -0.20091 v -1.92891 h -0.96449 v -0.0938 h -16.00726 q -1.44668,0 -2.31738,-1.35291 v 0 h -6.84496 q -0.0937,-0.2813 -0.2411,-0.576 -0.14735,-0.29469 -0.14735,-0.66976 v 0 -0.68316 h 2.02267 v -0.48222 h 10.51523 v -1.92891 h -2.79957 v -1.44669 h 0.20091 v -1.44668 h -7.43433 v -1.44668 h -6.84496 v -1.92892 h 17.93618 v -1.44668 h -10.01961 v -1.92891 h 1.92893 v -1.92891 h 2.50491 v -0.48223 h 1.44669 v -0.38846 q 0,-0.96445 0.57599,-1.54045 v 0 h -2.11647 q 0.76353,-1.05822 2.11647,-1.05822 v 0 h 56.51438 q 1.35294,0 2.12985,1.05822 v 0 h 2.02267 q 0.48224,0.68316 0.48224,1.54045 v 0 0.38846 h -1.44668 v 0.48223 h -2.50492 v 1.92891 h -1.92892 v 1.92891 z m 74.07551,20.25357 h -11.761 l -0.29466,1.44668 h 15.91351 l -0.18754,0.96446 h -14.66779 l -0.0937,0.48222 h 6.08144 l -0.29471,1.92891 h 2.02267 l -0.18754,1.44669 h 1.15198 l -0.28128,1.44668 h 0.0938 l -0.20096,1.44668 h 0.38845 v 0.48223 h -0.18749 l -0.29471,1.92891 h -0.28132 l -0.29467,1.92891 -0.18753,1.92892 h 1.82175 l -0.0938,0.48222 h -1.05823 v 0.48223 h 1.92893 v 0.48223 h -3.0809 l -0.10718,0.48222 h -1.05823 l -0.18749,1.44669 h 3.17465 l -0.28128,1.92891 h 3.65689 l -0.18754,1.44668 h -2.89336 l -0.0938,0.48223 h -1.44669 l -0.2947,1.92891 h 0.77695 l -0.0938,0.96446 h 0.85731 l -0.18754,1.44668 h -1.44668 l -0.18753,1.44668 h -3.18808 l -0.0937,0.96446 h 3.28182 l -0.29471,1.92891 h -2.11642 l -0.20096,1.92891 h 1.92893 l -0.18754,1.44668 h -7.43433 l -0.18754,0.96446 h 2.79962 l -0.0938,0.57599 v 0.38846 h 2.59866 q -0.0937,0.20093 -0.14735,0.48223 -0.0403,0.2947 -0.2411,0.48223 v 0 h -1.05823 q -0.4822,0.87069 -1.25915,1.44668 v 0 h 0.8707 q -0.57599,0.38846 -0.8707,0.48223 v 0 h 0.77695 q -0.77695,0.38846 -1.92892,0.38846 v 0 h -13.79706 q -0.57603,0 -1.00467,-0.14735 -0.44201,-0.14735 -0.81708,-0.24111 v 0 h -0.77695 q -0.29466,-0.0938 -0.4822,-0.24111 -0.18754,-0.14735 -0.3885,-0.24112 v 0 h -0.76352 q -0.38845,-0.38846 -0.68316,-0.76352 -0.28128,-0.38846 -0.4822,-0.68316 v 0 h 1.05823 q -0.0938,-0.0938 -0.0938,-0.2813 v 0 l -0.28128,-0.68316 h -2.61208 l -0.38846,-0.96445 h -2.78619 l -0.38845,-0.96446 h 7.4209 l -0.57599,-1.44668 h -2.02267 l -0.7769,-1.92891 h 2.12984 l -0.77695,-1.92891 h -3.28182 l -0.38845,-0.96446 h 3.09428 l -0.57599,-1.44668 h 1.44669 l -0.58937,-1.44668 h -0.85732 L 584.174,715.0286 h -0.77695 l -0.76352,-1.92891 h 1.44668 l -0.20091,-0.48223 h 2.89336 l -0.57599,-1.44668 h -3.67027 l -0.76352,-1.92891 h -3.18807 l -0.48225,-1.24576 -0.48224,1.24576 h -0.38845 l -0.76353,1.92891 h 5.97427 l -0.57599,1.44668 h -4.7285 l -0.18753,0.48223 h 0.87069 l -0.77695,1.92891 h 1.74139 l -0.38845,0.96446 h -4.82229 l -0.57599,1.44668 h 2.59866 l -0.57599,1.44668 h -3.18807 l -0.38845,0.96446 h 1.55385 l -0.7769,1.92891 h 0.0937 l -0.76352,1.92891 h -6.3761 l -0.57604,1.44668 h 10.12678 l -0.38845,0.96446 h -2.11641 l -0.3885,0.96445 h -0.18749 l -0.29471,0.68316 -0.18754,0.2813 h -2.98715 q -0.20092,0.2947 -0.44202,0.68316 -0.24114,0.37506 -0.72334,0.76352 v 0 h 0.57599 q -0.28128,0.2947 -0.76353,0.48223 v 0 h 2.59866 q -0.38845,0.0938 -0.87069,0.24111 -0.4822,0.14735 -1.05823,0.14735 v 0 h -13.78368 q -1.16535,0 -1.92888,-0.38846 v 0 h -2.51829 q -0.28133,-0.0938 -0.85732,-0.48223 v 0 h -0.68315 q -0.8707,-0.66976 -1.24577,-1.44668 v 0 h 3.0809 q -0.0937,-0.18753 -0.18754,-0.48223 -0.10712,-0.2813 -0.20091,-0.48223 v 0 h 0.29471 l -0.0938,-0.38846 -0.10712,-0.57599 h 2.12984 l -0.20096,-0.96446 H 541.16192 L 540.961,723.7087 h 6.26893 l -0.18749,-1.92891 h -0.0938 l -0.29471,-1.92891 h -1.54042 l -0.0938,-0.96446 h 3.0809 l -0.18754,-1.44668 h -2.51829 l -0.18754,-1.44668 h 4.82229 L 549.842,715.0286 h -1.74139 l -0.29466,-1.92891 h -0.85732 l -0.10717,-0.48223 h 4.7285 l -0.18749,-1.44668 h -5.98769 l -0.28128,-1.92891 h 0.38845 l -0.29471,-1.44669 h 1.05823 v -0.48222 h 3.09428 l -0.10712,-0.48223 h -2.02272 l -0.0937,-0.48223 h 1.05823 v -0.48222 h -1.92893 l -0.0937,-0.96446 h -0.0938 l -0.0937,-0.96446 -0.29471,-1.92891 h 0.29471 l -0.29471,-1.92891 h 0.18754 l -0.0938,-0.48223 h -0.38845 l -0.18754,-1.44668 h -0.0937 l -0.20092,-1.44668 h -1.15202 l -0.18754,-1.44669 h -2.03605 l -0.28128,-1.92891 h -6.08144 v -0.48222 h 14.66775 l -0.10717,-0.96446 h -5.78674 l -0.18753,-1.44668 h -6.08139 l -0.0938,-0.96446 h 8.77389 l -0.28132,-1.92891 h -2.31738 v -0.48223 h 1.35294 l -0.0938,-0.48222 h 2.02271 l -0.20096,-1.44669 h -3.26844 l -0.10712,-0.48223 h -7.51475 l -0.20091,-1.92891 h 8.39882 l -0.29471,-1.92891 h -2.11646 l -0.0937,-0.96445 h 0.85727 l -0.18753,-1.44668 h 0.2947 l -0.10717,-0.48223 h -2.98711 l -0.0938,-0.96446 h 2.02267 l -0.18749,-1.44668 h 0.18749 l -0.18749,-1.44668 h 1.63417 l -0.18749,-0.96446 h -5.21074 l -0.0938,-0.96446 h 4.13913 l -0.0938,-0.96445 h -2.41112 l -0.0937,-0.96446 h 2.98711 l -0.18753,-1.44668 h -0.96444 l -0.29471,-1.92891 h 1.05823 l -0.0938,-0.48223 -0.18749,-1.05822 v -0.38846 h -1.44668 q 0.18749,-2.02268 2.11641,-2.02268 v 0 h 17.93619 q 3.00054,0 3.37561,2.02268 v 0 h 1.44668 q 0.10717,0.20093 0.10717,0.57599 v 0 l 0.0937,0.87069 0.0938,0.48223 h -0.96449 l 0.18754,1.92891 h 0.96449 l 0.20091,1.44668 h -3.09428 l 0.20091,0.96446 h 2.31738 l 0.0937,0.96445 h -4.15252 l 0.0938,0.96446 h 5.21069 l 0.20097,0.96446 h -1.64765 l 0.0938,1.44668 h -0.0938 l 0.0938,1.44668 h -2.11646 l 0.18754,0.96446 h 2.89336 l 0.10717,0.48223 h -0.2947 l 0.18753,1.44668 h -0.85727 l 0.0937,0.96445 h 2.11646 l 0.29471,1.92891 h -8.49261 l 0.20096,1.92891 h 7.5147 l 0.0938,0.48223 h 3.28182 l 0.20091,1.44669 h -2.03605 v 0.48222 h -1.33956 l 0.0938,0.48223 h 2.02268 l 0.18753,-0.48223 h 0.96444 l 0.20096,-0.48222 h 4.04535 l 0.48219,-1.44669 h -4.43379 l 0.0937,-0.48223 h 7.43438 l 0.66974,-1.92891 h -7.80941 l 0.57599,-1.92891 h -0.8707 v -0.18753 l 0.29471,-0.77692 h 1.83514 q 0.18753,-0.38846 0.42868,-0.76353 0.2411,-0.38846 0.62955,-0.68315 v 0 h -0.57599 q 0.48224,-0.38847 1.05823,-0.48223 v 0 h 0.8707 q 0.28128,-0.0938 0.85727,-0.0938 v 0 h 9.8455 q 0.57598,0 0.76352,0.0938 v 0 h -0.85732 q 0.37508,0.0938 0.61622,0.20093 0.2411,0.0938 0.44202,0.2813 v 0 h 0.57598 q 0.48225,0.29469 0.72335,0.68315 0.24114,0.37507 0.33489,0.76353 v 0 h -1.72797 q 0.28128,0.38846 0.28128,0.77692 v 0 l 0.0938,0.18753 h 0.96444 l 0.58937,1.92891 h 3.75068 l 0.29471,-1.92891 h -0.57599 l 0.0937,-0.96445 h 4.52758 l 0.10717,-1.44668 h -4.2463 l 0.0938,-0.48223 h -0.77695 l 0.20096,-0.96446 h 1.63418 l 0.20096,-1.44668 h -0.58942 l 0.20096,-1.44668 h 1.3529 l 0.0938,-0.96446 h -5.88053 l 0.0938,-0.96446 h 1.72796 l 0.10717,-0.96445 h 3.26844 l 0.10712,-0.96446 h -0.10712 l 0.20092,-1.44668 0.18753,-1.92891 h -1.92892 l 0.0938,-0.48223 h 2.31733 l 0.20096,-0.87069 v -0.57599 h 1.82176 q 0.38845,-2.02268 3.37556,-2.02268 v 0 h 17.94961 q 0.76353,0 1.39308,0.57599 0.62959,0.576 0.72334,1.44669 v 0 h -1.74135 v 0.38846 l -0.18753,1.05822 h -2.41117 l -0.0937,0.48223 h 2.02267 l -0.2947,1.92891 -0.18754,1.44668 h 0.0938 l -0.18753,0.96446 h -3.28182 l -0.0938,0.96445 h -1.74139 l -0.18749,0.96446 h 5.97422 l -0.0937,0.96446 h -1.35293 l -0.18749,1.44668 h 0.48219 l -0.20091,1.44668 h -1.63422 l -0.18754,0.96446 h 0.76353 l -0.0937,0.48223 h 4.24626 l -0.20092,1.44668 h -4.43384 l -0.18749,0.96445 h 0.57599 l -0.29471,1.92891 h -3.46935 l -0.28133,1.92891 h 4.23293 l -0.0938,0.48223 h -4.91604 l -0.18754,1.44669 h 4.52759 v 0.48222 h -0.29471 l -0.0937,0.48223 h 0.2947 l -0.2947,1.92891 h 1.54042 z m -23.44159,-5.30451 0.10712,-0.48223 h -3.28182 l 0.0938,0.48223 z m -0.48225,1.44669 h -1.72796 l 0.18749,0.48222 h -0.96444 l 0.20091,0.48223 0.66978,1.92891 h -10.42149 l 0.29471,0.96446 h 12.83261 l 0.0938,-0.96446 h -1.54047 l 0.28128,-1.92891 h -0.28128 l 0.0938,-0.48223 h 0.18749 z m -19.47666,6.08142 0.18754,-0.77692 h -0.28128 z m 24.01763,-0.77692 0.28133,0.68316 0.10712,-0.68316 z m 90.65884,0 v 1.44668 h 4.82225 v 1.92891 h -0.8707 v 1.92892 h -0.87069 v 1.44668 h -2.02267 v 0.48222 h 0.77695 v 0.48223 h -2.70583 v 0.96446 h 4.63471 v 1.44668 h -2.79958 v 0.48223 h 0.0937 q 0,0.48223 -0.0536,0.96445 -0.0403,0.48223 -0.0403,0.96446 v 0 h -0.0938 q -0.10713,0.2947 -0.10713,0.87069 v 0 1.05822 h -0.48224 q -0.0938,0.20093 -0.0938,0.48223 0,0.29469 0,0.48223 v 0 h 0.96449 l -0.28133,1.92891 h -0.87065 q -0.0938,0.48223 -0.14735,0.96446 -0.0536,0.48222 -0.24115,0.96445 v 0 h 1.05823 q 0,0.0938 -0.0403,0.20093 -0.0536,0.0938 -0.0536,0.2813 v 0 h 1.44668 q 0,0.0938 -0.0536,0.20092 -0.0403,0.0938 -0.0403,0.2813 v 0 h -1.74139 q -0.0937,0.38846 -0.18749,0.72334 -0.0938,0.33489 -0.20096,0.72335 v 0 h -0.28128 l -0.57599,1.44668 h -1.07161 q -0.0938,0.38846 -0.28133,0.72334 -0.20091,0.33488 -0.38845,0.72334 v 0 h 0.8707 q -0.20092,0.48223 -0.48225,0.96446 v 0 h -0.57598 q -0.10717,0.38846 -0.34827,0.72334 -0.2411,0.33488 -0.42864,0.72334 v 0 h 2.98711 l -0.66973,0.96446 h -3.57652 l -1.05824,1.44668 h 1.05824 l -1.33956,1.44668 h 1.05823 q -0.0937,0.0938 -0.2411,0.20093 -0.14735,0.0938 -0.2411,0.2813 v 0 h 1.15198 q -0.28133,0.20093 -0.52243,0.48223 -0.2411,0.2947 -0.5358,0.48223 v 0 h -1.83514 q -0.28133,0.20093 -0.57599,0.48223 -0.2947,0.29469 -0.66978,0.48222 v 0 h 0.66978 q -0.2947,0.20093 -0.62959,0.48223 -0.33489,0.29469 -0.72334,0.48223 v 0 h -0.18754 q -0.8707,0.48223 -1.74139,0.96445 -0.87065,0.48223 -1.83514,0.96446 v 0 h -0.28128 q -0.2947,0.0938 -0.57599,0.20093 -0.2947,0.0938 -0.58941,0.2813 v 0 q -0.66973,0.29469 -1.29933,0.53581 -0.62955,0.24111 -1.39307,0.42864 v 0 h -0.0938 q -3.18807,0.96446 -6.95213,1.44668 v 0 h 0.0938 q -1.54047,0.20093 -3.22825,0.2947 -1.68779,0.0938 -3.32201,0.0938 v 0 q -1.74139,0 -3.37561,-0.0938 -1.64759,-0.0938 -3.28181,-0.2947 v 0 q -3.67027,-0.38846 -7.04588,-1.44668 v 0 h 0.10717 q -0.68316,-0.18753 -1.35294,-0.42864 -0.68316,-0.24112 -1.35289,-0.53581 v 0 h -0.0938 q -0.29471,-0.18753 -0.57599,-0.2813 -0.29471,-0.10716 -0.58937,-0.20093 v 0 h 0.29466 q -0.96444,-0.48223 -1.83513,-0.96446 -0.8707,-0.48222 -1.72797,-0.96445 v 0 h 0.18754 l -1.44669,-0.96446 h -0.57598 q -0.3885,-0.18753 -0.68316,-0.48222 -0.28133,-0.2813 -0.57604,-0.48223 v 0 h 1.83518 l -1.15202,-0.96446 h -1.16535 q -0.0938,-0.18753 -0.18754,-0.2813 -0.0938,-0.10716 -0.29471,-0.20093 v 0 h -0.96444 q -0.38845,-0.38846 -0.72334,-0.72334 -0.33489,-0.33488 -0.62959,-0.72334 v 0 h -1.05824 l -1.15197,-1.44668 h 3.56314 l -0.57598,-0.96446 h -3.08091 q -0.20096,-0.38846 -0.38845,-0.72334 -0.20096,-0.33488 -0.3885,-0.72334 v 0 h 0.57599 q -0.28128,-0.48223 -0.4822,-0.96446 v 0 h -0.87069 q -0.18754,-0.38846 -0.33489,-0.72334 -0.14735,-0.33488 -0.33489,-0.72334 v 0 h 1.15202 l -0.57603,-1.44668 h 0.2947 q -0.0937,-0.38846 -0.20091,-0.72335 -0.0938,-0.33488 -0.18754,-0.72334 v 0 h 1.05823 q -0.0938,-0.18753 -0.0938,-0.48222 v 0 h -0.96444 q 0,-0.18754 -0.0536,-0.2813 -0.0403,-0.10716 -0.0403,-0.20093 v 0 H 624.962 q -0.0937,-0.48223 -0.18753,-0.96445 -0.0937,-0.48223 -0.18754,-0.96446 v 0 h 0.48224 q -0.10717,-0.48223 -0.14735,-0.96446 -0.0536,-0.48223 -0.0536,-0.96445 v 0 h -0.57599 l -0.0938,-0.96446 h 0.66978 v -1.05822 q 0,-0.18753 -0.0403,-0.42865 -0.0536,-0.24111 -0.0536,-0.44204 v 0 h -1.25914 q -0.0937,-0.48223 -0.0937,-0.96446 0,-0.48222 0,-0.96445 v 0 h 0.68316 v -0.48223 h -0.29471 v -1.44668 h 1.92893 v -0.96446 h -3.37561 v -0.48223 h 1.83514 v -0.48222 h -0.0937 v -1.44668 h -0.48224 v -1.92892 h 0.57599 v -1.92891 h -0.68316 v -1.44668 h -3.5631 v -1.92891 h 4.15251 q 0.0937,-0.18754 0.0937,-0.48223 v 0 h 1.54047 v -0.48223 h -1.15202 v -0.96445 h 0.0938 l 0.18754,-1.92891 h -0.18754 q 0,-0.38847 0.0403,-0.72335 0.0536,-0.33488 0.14736,-0.72334 v 0 h -0.28133 q 0,-0.38846 0.0403,-0.72334 0.0536,-0.33488 0.14735,-0.72334 v 0 h -0.18754 q 0.0938,-0.38846 0.18754,-0.72334 0.0938,-0.33488 0.18754,-0.72334 v 0 h -2.69241 q 0,-0.18754 0.0403,-0.2813 0.0536,-0.10716 0.0536,-0.20093 v 0 h 2.89337 l 0.2947,-0.96446 h -0.20096 l 0.20096,-0.48222 h 1.44668 q 0.0937,-0.18754 0.18754,-0.48223 0.0937,-0.2813 0.18754,-0.48223 v 0 h -0.96449 q 0.29471,-0.87069 0.77695,-1.92891 v 0 h -0.29471 q 0.29471,-0.48223 0.53581,-1.00464 0.2411,-0.53581 0.5358,-0.92427 v 0 h 0.28129 l 0.2947,-0.48223 h -1.54043 l 0.28129,-0.48222 h 1.54047 l 0.29466,-0.48223 h -0.18754 l 1.15203,-1.44669 h -0.66978 l 1.24577,-1.44668 q 0.48219,-0.48223 1.01804,-1.00464 0.52238,-0.53581 1.1118,-0.92427 v 0 h -0.96449 l 0.57604,-0.48223 h -1.05824 q 0.18754,-0.18753 0.33489,-0.2813 0.14731,-0.10716 0.33485,-0.20093 v 0 h 2.41117 q 0.38845,-0.18753 0.7769,-0.48223 0.37507,-0.2813 0.76353,-0.48222 v 0 h 0.2947 q 0.96444,-0.48223 1.92893,-1.00464 0.96444,-0.53581 1.92888,-0.92427 v 0 h 0.28133 q 1.92888,-0.87069 4.24625,-1.44669 v 0 h 0.48225 q 2.79957,-0.76353 5.88048,-1.15199 3.09432,-0.38846 6.37614,-0.38846 v 0 q 6.84497,0 12.14946,1.54045 v 0 h -0.57599 q 1.05823,0.2947 2.11641,0.62958 1.05824,0.33488 2.02268,0.81711 v 0 h -0.38846 q 1.07161,0.38846 1.98249,0.92427 0.91088,0.52241 1.87537,1.00464 v 0 h -0.37508 l 1.44669,0.96445 h -2.41117 q 0.18753,0.0938 0.33489,0.20093 0.14735,0.0938 0.33489,0.2813 v 0 h 1.05823 q 0.20091,0.0938 0.38845,0.20093 0.18754,0.0938 0.29471,0.2813 v 0 h 0.96444 q 0.57598,0.38846 1.09841,0.92427 0.53581,0.52241 1.01805,1.00464 v 0 h 0.0937 q 0.38846,0.38846 0.68316,0.72334 0.28128,0.33488 0.57599,0.72334 v 0 h 0.66978 l 1.16536,1.44669 h 0.18753 q 0.29471,0.29469 0.3885,0.48223 v 0 h -1.54047 l 0.28128,0.48222 h 1.64764 l 0.28128,0.48223 h -0.28128 q 0.28128,0.38846 0.52238,0.92427 0.24115,0.52241 0.53585,1.00464 v 0 h 0.28129 l 0.87069,1.92891 h 0.96444 l 0.29471,0.96446 h -1.44669 l 0.18754,0.48222 h 0.20092 l 0.28128,0.96446 h -0.28128 q 0,0.0938 0.0403,0.20093 0.0536,0.0938 0.0536,0.2813 v 0 h -4.05877 q 0.20092,0.38846 0.2411,0.72334 0.0536,0.33488 0.14735,0.72334 v 0 h 5.02321 q 0.0938,0.38846 0.13398,0.72334 0.0536,0.33488 0.0536,0.72334 v 0 h -1.35294 q 0.0938,0.38846 0.14735,0.72334 0.0536,0.33488 0.0536,0.72335 v 0 h 1.24572 l 0.20096,1.92891 h -1.25914 v 0.29469 q 0,0.0938 0.0536,0.2813 0.0403,0.20093 0.0403,0.38846 v 0 h 2.61208 v 0.48223 h -2.31738 q 0.0937,0.20093 0.0937,0.48223 v 0 h 1.74139 q 0.0938,0.48223 0.0938,0.96445 0,0.48223 0,0.96446 v 0 z m -21.12426,5.30451 v -1.92892 h 0.8707 v -1.92891 h -4.8223 v -1.44668 h 2.89337 q 0,-0.48223 0,-0.96446 0,-0.48222 -0.0938,-0.96445 v 0 h -1.74134 q 0,-0.18754 -0.0536,-0.2813 -0.0403,-0.10716 -0.0403,-0.20093 v 0 h 2.31738 v -0.48223 h -2.61208 q 0,-0.18753 -0.0403,-0.2813 -0.0536,-0.10716 -0.0536,-0.20092 v 0 -0.48223 h 1.15197 q 0,-0.48223 -0.0403,-1.00464 -0.0536,-0.53581 -0.14735,-0.92427 v 0 h -1.25915 q -0.0937,-0.38847 -0.18754,-0.72335 -0.0937,-0.33488 -0.29466,-0.72334 v 0 h 1.35289 q -0.28128,-0.76352 -0.76352,-1.44668 v 0 h -5.02321 q -0.48224,-0.76353 -1.54043,-1.44668 v 0 h 4.04535 q -0.57599,-0.38846 -0.85732,-0.48223 v 0 h 0.28133 q -1.44669,-0.576 -3.1747,-0.576 v 0 q -1.74134,0 -3.18802,0.576 v 0 h -2.79963 q -0.38845,0.0938 -0.96444,0.48223 v 0 h 2.70583 q -0.77695,0.48223 -1.54047,1.44668 v 0 h 0.18754 q -0.4822,0.68316 -0.77691,1.44668 v 0 h 0.29471 q -0.0938,0.38846 -0.18754,0.72334 -0.10717,0.33488 -0.2947,0.72335 v 0 h 0.18753 q -0.0938,0.38846 -0.13397,0.92427 -0.0536,0.52241 -0.0536,1.00464 v 0 h -0.18754 v 0.96445 h 1.15198 v 0.48223 h -1.54043 v 0.48223 h -4.24631 v 1.92891 h 3.56315 v 1.44668 h 0.68316 v 1.92891 h -0.57599 v 1.92892 h 0.4822 v 1.44668 h 0.0938 q 0,0.29469 0.0937,0.48222 v 0 h -1.92888 v 0.48223 h 3.37557 v 0.96446 h -1.92888 v 1.44668 h 0.29466 v 0.48223 h -0.68316 q 0,0.48223 0.0536,0.96445 0.0403,0.48223 0.0403,0.96446 v 0 h 1.35289 v 0.2947 q 0,0.38846 0,0.81711 0,0.42864 0.0938,0.8171 v 0 h -0.66978 q 0.0938,0.20093 0.0938,0.48223 0,0.29469 0.0937,0.48223 v 0 h 0.58942 q 0.0937,0.48222 0.28128,0.96445 0.20091,0.48223 0.38845,0.96446 v 0 h -0.4822 q 0.57599,1.05822 1.54043,1.92891 v 0 h 0.20092 q 0.18753,0.0938 0.37507,0.24111 0.20096,0.14735 0.38845,0.24112 v 0 h 0.8707 q 0.2947,0.0938 0.57598,0.24111 0.29471,0.14735 0.57604,0.24111 v 0 h -1.15202 q 1.15202,0.38846 2.70583,0.38846 v 0 q 1.54047,0 2.69245,-0.38846 v 0 h 1.6476 q 0.28132,-0.0938 0.57603,-0.24111 0.28128,-0.14735 0.57599,-0.24111 v 0 h -1.54048 q 0.18754,-0.0938 0.38846,-0.24112 0.18753,-0.14734 0.37507,-0.24111 v 0 h -1.05823 q 0.87069,-0.66976 1.54047,-1.92891 v 0 h 0.8707 q 0.48219,-1.05823 0.7769,-1.92891 v 0 h -0.96444 q 0.0937,-0.18754 0.0937,-0.48223 0,-0.2813 0.0938,-0.48223 v 0 h 0.48219 q 0.0938,-0.38846 0.0938,-0.8171 0,-0.42865 0,-0.81711 v 0 -0.2947 h 0.20092 q 0,-0.48223 0,-0.96446 0,-0.48222 0.0938,-0.96445 v 0 h -0.0938 v -0.48223 h 2.79962 v -1.44668 h -4.63476 v -0.96446 h 2.70583 v -0.48223 h -0.7769 v -0.48222 h 2.02267 v -1.44668 z m 92.68147,-5.30451 v 0 h -4.7285 q -0.0938,0.38846 -0.18754,0.72334 -0.0937,0.33488 -0.2947,0.72334 v 0 h 2.70583 l -0.29466,0.96446 h -2.304 q -0.29471,0.87069 -0.77691,1.92891 v 0 h -1.44668 q -0.3885,0.96446 -1.05823,1.92891 v 0 h 0.18754 q -0.38846,0.48223 -0.66978,0.96445 -0.29471,0.48223 -0.68316,0.96446 v 0 h 10.42149 l -1.25915,1.44669 h -8.57293 q -0.38845,0.48222 -0.96449,0.96445 -0.58936,0.48223 -1.07161,0.96445 v 0 h 1.25915 q -0.38845,0.38847 -0.91088,0.72335 -0.5358,0.33488 -1.018,0.72334 v 0 h 3.18803 l -0.38845,0.29469 0.87069,1.63422 h -2.31738 l 1.05823,1.92891 h 0.29471 l 0.28128,0.48223 h -0.0937 l 0.96444,1.92891 h 0.96444 l 0.57599,0.96445 h -7.42091 l 0.76352,1.44669 h 6.75118 l 0.58936,0.96446 h -2.12984 l 0.77695,1.44668 h 9.5508 l 1.05823,1.92891 h -6.36277 l 0.76353,1.44668 h -2.98712 l 1.54043,2.89337 h 0.68316 l 0.57604,0.96445 h -0.29471 l 0.29471,0.48223 h -4.54102 l 1.07161,1.92891 0.18754,0.48223 h -2.98711 l 0.48224,1.05822 q 0.28128,0.38846 0.28128,0.87069 v 0 h 2.03605 v 0.20093 q 0,1.05822 -0.87064,1.72798 v 0 h 2.59866 q -0.48225,0.38846 -1.24577,0.38846 v 0 h -19.77132 q -0.58942,0 -1.01805,-0.14735 -0.42864,-0.14735 -0.91088,-0.24111 v 0 h -2.61209 q -0.76352,-0.38846 -1.29933,-0.96445 -0.5358,-0.576 -0.81708,-0.96446 v 0 h -1.92893 l -0.20091,-0.2813 -0.66978,-1.64761 h 3.0809 l -0.28128,-0.48223 h -9.16234 v 0.48223 h -4.91604 v 1.92891 h 7.8094 q -0.20091,1.35292 -1.25914,1.92891 v 0 h -0.66974 q -0.68316,0.38846 -1.44668,0.38846 v 0 h -18.90067 q -0.8707,0 -1.3529,-0.38846 v 0 h 0.76353 q -1.05823,-0.57599 -1.24577,-1.92891 v 0 h -7.71566 q 0,-0.0938 -0.0536,-0.14735 -0.0403,-0.0402 -0.0403,-0.13395 v 0 -1.64761 h 4.91604 v -0.48223 h 9.64454 v -1.92891 h -10.3277 v -0.48223 h 6.08144 v -0.96445 h -2.02267 v -1.44669 h 3.37557 v -1.44668 h -5.50541 v -1.44668 h 7.43433 v -1.92891 h -4.2463 v -1.44668 h -0.0937 v -0.48223 h -0.57599 v -0.48223 h -2.61208 v -1.44669 h 3.28182 v -0.96445 h -0.8707 v -1.92891 h 0.0938 v -0.48223 h -0.28128 v -1.92891 h 2.31733 v -1.92891 h -3.28181 v -1.44669 h -1.25915 v -1.9289 h 8.49256 v -1.44669 h -10.42149 v -1.92891 h -0.18749 v -1.92891 h 1.44669 v -1.92891 h 2.2102 v -0.96446 h -2.69245 v -1.44668 h 4.7285 v -0.96446 h 6.93871 v -0.96445 h -9.55079 v -0.48223 h 0.48224 v -0.48223 h 0.8707 v -0.48222 h 0.0937 v -0.96446 h -0.18749 v -1.44668 h 0.38845 v -1.92891 h -0.48224 v -0.96446 h 0.48224 v -1.44668 h -0.38845 v -0.48223 h 0.28128 v -0.96446 h -0.0938 v -0.48222 h -0.38845 v -0.48223 h 0.8707 v -1.44668 h 0.77695 v -1.44669 h -4.54102 v -1.92891 h 1.07161 v -1.92891 h -0.58936 v -1.44668 h 2.61208 v -1.44668 h 0.96444 v -1.44669 h -1.74139 v -0.96446 h 0.68316 v -0.48222 h 0.18754 v -1.44668 h 0.18753 q 0,-1.05823 0.8707,-1.92892 v 0 h 5.21074 q 0.57599,-0.57599 1.63422,-0.57599 v 0 h 28.55859 q 4.13909,0 7.71562,0.57599 v 0 h -5.11696 q 3.85781,0.576 7.32716,1.92892 v 0 h -0.18749 q 1.63418,0.57599 3.17465,1.44668 v 0 h -0.18753 l 0.87069,0.48222 h -0.77695 q 0.48224,0.20093 0.81713,0.48223 0.34827,0.2947 0.72334,0.48223 v 0 h 1.74139 q 0.4822,0.38846 0.96444,0.72334 0.48225,0.33489 0.8707,0.72335 v 0 h -0.96444 q 0.4822,0.38846 0.81709,0.72334 0.33489,0.33488 0.72334,0.72334 v 0 h -2.59866 q 0.37507,0.38846 0.66973,0.72334 0.29471,0.33488 0.57599,0.72334 v 0 h 0.48224 q 0.77695,0.96446 1.35294,1.92891 v 0 h -0.96449 q 0.29471,0.38846 0.53581,0.92427 0.24114,0.52241 0.52243,1.00464 v 0 h 4.54096 l 0.57604,1.44669 h -0.77695 q 0.0938,0.38846 0.24109,0.72334 0.14736,0.33488 0.24115,0.72334 v 0 h -0.96449 l 0.20096,0.48223 h 0.37508 q 0.10712,0.20092 0.10712,0.48222 v 0 l 0.28133,0.96446 h 0.29471 q 0,0.29469 0.0937,0.48223 v 0 h 0.0937 q 0.0938,0.38846 0.14735,0.72334 0.0536,0.33488 0.0536,0.72334 v 0 h -1.25915 q 0,0.20093 0,0.48223 0,0.29469 0.0937,0.48223 v 0 h 0.57598 q 0,0.48222 0.0536,0.96445 0.0536,0.48223 0.0536,0.96446 v 0 0.96445 h 0.57599 v 0.48223 h -0.57599 v 0.96446 h -0.96444 q 0,0.0938 -0.0536,0.20092 -0.0536,0.0938 -0.0536,0.2813 v 0 h 0.96444 q 0,0.0938 -0.0403,0.20093 -0.0536,0.0938 -0.0536,0.2813 v 0 h 4.54096 q -0.10717,0.20093 -0.10717,0.48223 v 0 h 1.25915 l -0.0937,0.96445 h -4.43384 q -0.20091,0.576 -0.20091,0.96446 z m -38.5782,-2.41114 v 0.48223 h 9.55079 v 0.96445 h -6.93875 v 0.0938 h 7.0325 q 0.68316,0 1.05823,-0.0938 v 0 h 4.44722 q 1.05823,-0.2813 1.92888,-0.96445 v 0 h -1.35289 l 0.48224,-0.48223 h -4.54101 q 0.29471,-0.2813 0.38845,-0.48223 v 0 h -0.96444 l 0.29471,-0.48222 h 0.96444 l 0.28133,-0.96446 h 0.48219 q 0.10717,-0.18753 0.10717,-0.48223 v 0 h -0.58936 l 0.10712,-0.96445 q 0,-0.96446 -0.29466,-1.92891 v 0 h -0.57599 q -0.0938,-0.18754 -0.14735,-0.48223 -0.0536,-0.2813 -0.24115,-0.48223 v 0 h 1.35294 q -0.38845,-0.76353 -1.05823,-1.44668 v 0 h -0.20092 q -0.28132,-0.2813 -0.66978,-0.48223 v 0 h -0.2947 q -0.96444,-0.48223 -2.02267,-0.48223 v 0 h -7.04588 v 0.48223 h -0.28128 v 0.48223 h 0.38845 v 1.44668 h -0.48225 v 0.96446 h 0.48225 v 1.92891 h -0.38845 v 1.44668 h 0.18753 v 0.96446 h -0.0938 v 0.48222 h -0.87069 v 0.48223 z m 2.31738,22.6647 h 5.30449 l -0.38846,-0.96445 h -1.05823 l -0.7769,-1.83514 h -3.9516 v 1.83514 h 0.8707 z m -2.02267,0 h -1.2592 v 1.44669 h 1.83518 z m 7.8094,2.41115 -0.29471,-0.48223 -0.18753,-0.48223 h -5.97427 v 0.48223 h 0.57599 v 0.48223 h 0.0938 v 1.44668 h 4.24626 v 1.92891 h -7.43434 v 1.44668 h 5.50546 v 1.44668 h -3.37561 v 1.44669 h 2.02267 v 0.96445 h -6.08144 v 0.48223 h 13.60956 l -0.29471,-0.48223 h 0.29471 l -0.48224,-0.96445 h -0.77691 l -0.57599,-1.44669 -0.68315,-1.44668 h 3.09428 l -0.68316,-1.44668 h 6.26898 l -0.85732,-1.92891 h -9.55079 l -0.57599,-1.44668 z m 99.52643,-43.88273 -0.66978,0.96445 h 9.34988 l -0.57599,0.96446 h -1.92892 l -0.8707,1.44669 h -9.73833 l -0.57599,0.96445 h 1.35294 l -0.96444,1.44668 h 1.24572 l -1.24572,1.92892 h -1.44668 l -0.8707,1.44668 h 3.46936 l -0.57599,0.96445 h -1.63422 l -0.68316,0.96446 h -0.66978 l -0.2947,0.48223 h -1.24573 l -1.1654,1.92891 h -0.87069 l -0.96444,1.44668 h 1.1654 l -0.57604,0.96446 h 0.57604 l -1.1654,1.92891 h -7.9032 l -0.96444,1.44668 h 0.18754 l -1.24577,1.92891 h 8.58635 l -0.58941,0.96446 h 2.31738 l -0.28128,0.48222 h -0.29471 l -0.66978,0.96446 h 1.33956 l -0.57603,0.96445 h -7.80941 l -0.18753,0.2947 0.37507,0.66976 h 6.56368 l 1.25915,1.92891 h -1.83514 l 0.57599,0.96445 h -0.48224 l 0.2947,0.48223 h -0.68315 l 0.96444,1.44669 h 1.92892 l 0.29471,0.48223 h 3.28182 l 0.28128,0.48222 h -4.7285 l 0.68316,0.96446 h 0.66973 l 1.25919,1.92891 h -0.68316 l 1.25915,1.92891 h -1.63422 l 0.37507,0.48223 0.96444,1.44668 h -1.92892 l 0.38845,0.48223 h 0.3885 l 0.96444,1.44668 h 2.59866 l 0.2947,0.48223 h 0.96444 l 0.29471,0.48223 h 2.21021 l 1.25915,1.92891 h -0.29471 l 0.96448,1.44668 h -3.65689 l 0.28129,0.48223 h 1.1654 l 0.96444,1.44668 h -2.89337 l 0.57599,0.96446 h -2.61204 l 0.87065,1.44668 h 7.62191 l 0.96444,1.44668 h -0.87069 l 0.68316,0.96446 h -1.16541 l 1.2592,1.92891 h 0.48219 l 0.66978,0.96446 h 0.68316 l 0.28128,0.48222 h -1.15197 l 1.24577,1.92891 h 0.68315 l 0.0937,0.0938 q 0.18754,0.38846 0.2411,0.62958 0.0536,0.24111 0.0536,0.44204 v 0 0.2813 h -0.77695 q -0.18754,0.87069 -0.8707,1.44668 v 0 h -0.18749 q -0.48224,0.38846 -1.25919,0.38846 v 0 h -21.70025 q -0.57599,0 -1.00462,-0.14735 -0.44206,-0.14735 -0.92426,-0.24111 v 0 h 0.20092 q -1.16541,-0.48223 -1.74139,-1.44668 v 0 h 0.77695 q -0.10717,-0.18753 -0.29471,-0.38846 v 0 l -0.66978,-1.05823 h -0.7769 l -1.25915,-1.92891 h 1.25915 l -0.29471,-0.48222 h -0.76353 l -0.57598,-0.96446 h -0.58937 l -1.24577,-1.92891 h 1.15198 l -0.57599,-0.96446 h 0.87069 l -0.96444,-1.44668 h -7.62191 l -0.96444,-1.44668 h 2.70583 l -0.68316,-0.96446 h 2.98716 l -0.96449,-1.44668 h -1.15197 l -0.18754,-0.2813 -0.20092,0.2813 h -0.66978 l -0.87069,1.44668 h -2.79958 l -0.57598,0.96446 h 1.92888 l -0.96444,1.44668 h -1.15198 l -0.87069,1.44668 h 3.3756 l -0.57603,0.96446 h 0.48224 l -1.1654,1.92891 h 1.35294 l -0.66978,0.96446 h -1.83513 l -0.29471,0.48222 h 0.3885 l -1.25915,1.92891 h 0.20092 l -0.68316,1.05823 q -0.18754,0.20093 -0.28128,0.38846 v 0 h -0.68316 q -0.57604,0.96445 -1.72801,1.44668 v 0 h -0.38846 q -0.38845,0.0938 -0.87069,0.24111 -0.48224,0.14735 -1.05823,0.14735 v 0 h -21.03047 q -0.76353,0 -1.15198,-0.38846 v 0 h 0.29466 q -0.68316,-0.57599 -0.87065,-1.44668 v 0 h 0.66974 v -0.2813 q 0,-0.20093 0.0536,-0.44204 0.0403,-0.24112 0.24109,-0.62958 v 0 l 0.0937,-0.0938 h -0.18754 l 1.24577,-1.92891 h -0.28128 l 0.28128,-0.48222 h 1.83514 l 0.57598,-0.96446 h -1.35289 l 1.25915,-1.92891 h -0.48224 l 0.66978,-0.96446 h -3.46936 l 0.96444,-1.44668 h 1.1654 l 0.96444,-1.44668 h -1.92892 l 0.57603,-0.96446 h 2.89337 l 0.87065,-1.44668 h 0.66978 l 0.2947,-0.48223 h 3.65689 l 0.96444,-1.44668 h 0.20092 l 1.24577,-1.92891 h -2.11642 l 0.28128,-0.48223 h -0.96444 l 0.29466,-0.48223 h -2.59866 l 0.96444,-1.44668 h -0.38845 l 0.28133,-0.48223 h 1.83513 l 0.96444,-1.44668 h -0.0937 l 0.38845,-0.48223 h 1.54043 l 1.25915,-1.92891 h 0.66977 l 1.25915,-1.92891 h -0.68316 l 0.57599,-0.96446 h 4.7285 l 0.3885,-0.48222 h -3.28186 l 0.2947,-0.48223 h -1.92888 l 0.96444,-1.44669 h 0.57599 l 0.38845,-0.48223 h 0.48225 l 0.66973,-0.96445 h 1.83518 l 1.25915,-1.92891 h -6.56369 l 0.29471,-0.38846 -0.38845,-0.576 h 7.90315 l -0.66973,-0.96445 h -1.25915 l -0.66978,-0.96446 h 0.38845 l -0.29466,-0.48222 h -2.41117 l -0.57599,-0.96446 h -8.5863 l -1.15203,-1.92891 h -0.20091 l -0.8707,-1.44668 h 7.91658 l -1.16536,-1.92891 h -0.66978 l -0.57599,-0.96446 h -1.1654 l -0.85727,-1.44668 h 0.85727 l -1.15197,-1.92891 h 1.25914 l -0.2947,-0.48223 h 0.66977 l -0.57598,-0.96446 h 1.6476 l -0.58937,-0.96445 H 771.372 l -0.87069,-1.44668 h 1.44668 l -1.15198,-1.92892 h -0.87069 l -0.96444,-1.44668 h 4.34005 l -0.57599,-0.96445 h -4.82229 l -0.8707,-1.44669 h -0.96444 l -0.57599,-0.96446 h 5.49203 l -0.57599,-0.96445 h -1.35294 l -0.57598,-0.96445 h -2.31738 l -0.57599,-0.96446 h 0.0937 l -0.28128,-0.48223 h 0.66978 l -1.15202,-1.92891 h -3.57653 l -0.18749,-0.2813 q 0,-0.10716 -0.0536,-0.10716 -0.0403,0 -0.0403,-0.0938 v 0 h 2.59866 q -0.0937,-0.18753 -0.14735,-0.38846 -0.0403,-0.18753 -0.0403,-0.48222 v 0 -0.0938 h 0.0938 q 0.18754,-0.96446 0.66974,-1.44669 v 0 h -0.76353 q 0.57604,-0.57599 1.44668,-0.57599 v 0 h 20.92335 q 0.66978,0 1.25915,0.18753 0.57598,0.20093 0.96444,0.38846 v 0 h 0.85731 q 0.58937,0.2947 0.96444,0.68316 0.38845,0.37507 0.58942,0.76353 v 0 h -0.10718 q 0.20092,0.38846 0.20092,0.38846 v 0 l 0.38845,0.57599 h -2.61204 l 0.20092,0.48223 h 3.56314 l 1.15198,1.92891 h -0.66978 l 0.29471,0.48223 h -0.10717 l 0.58941,0.96446 h 2.21021 l 0.57599,0.96445 h 1.35289 l 0.48224,0.96445 h -5.49202 l 0.57598,0.96446 h 0.96444 l 0.8707,1.44669 h 12.14945 l 0.8707,-1.44669 h 1.92892 l 0.57599,-0.96446 h -9.34988 l 0.57604,-0.96445 h 1.72796 l 0.68316,-0.96445 h -3.9516 l 0.66978,-0.96446 h 2.11642 l 0.29471,-0.48223 H 802.529 l 1.24577,-1.92891 h 1.54047 l 0.29466,-0.48223 h -0.87069 l 0.38849,-0.57599 q 0,0 0.18754,-0.38846 v 0 h 0.29466 q 0.18754,-0.38846 0.57599,-0.76353 0.3885,-0.38846 0.96448,-0.68316 v 0 h -2.2102 q 0.48219,-0.18753 1.05823,-0.38846 0.57599,-0.18753 1.24572,-0.18753 v 0 h 19.97228 q 0.96444,0 1.35289,0.57599 v 0 h 2.21021 q 0.68316,0.68316 0.68316,1.44669 v 0 h -0.20091 v 0.0938 q 0,0.58938 -0.18754,0.87068 v 0 h 0.87069 q 0,0.0938 -0.0536,0.0938 -0.0536,0 -0.0536,0.10716 v 0 l -0.18753,0.2813 h -1.54043 l -1.25915,1.92891 h 0.57599 l -0.28128,0.48223 h -2.12984 l -0.57604,0.96446 h 3.85786 l -0.57599,0.96445 z m -29.99189,4.34005 h -2.11642 l 0.87065,1.44668 h 0.37507 z m -0.38845,1.44668 0.38845,0.576 0.2947,-0.576 z m 54.78642,48.22278 v 1.92891 h 12.44416 v 1.44668 h -13.50239 q -0.20092,1.35292 -1.25915,1.92891 v 0 h 5.5992 q -0.4822,0.38846 -1.35289,0.38846 v 0 h -16.78421 q -0.96449,0 -1.44669,-0.38846 v 0 h -5.49202 q -1.05823,-0.57599 -1.2592,-1.92891 v 0 h 13.5024 v -1.44668 h -12.44416 v -1.92891 h -1.72797 v -1.44669 h 13.68988 v -1.44668 h -17.74865 v -0.48223 h 1.35294 v -1.44668 h 11.09122 v -0.48223 h -9.06855 v -0.48223 h 7.91658 v -0.96445 h -1.05823 v -1.44669 h 2.304 v -0.48222 h 1.07161 v -1.92891 h 0.28128 v -0.48223 h 0.68316 v -1.92891 h 2.41112 v -0.48223 h -4.24626 v -0.18753 q 0,-0.87069 0.66973,-1.74138 v 0 h 3.18808 q 0.76352,-0.87069 1.92892,-0.87069 v 0 h 16.78421 q 1.24572,0 1.92888,0.87069 v 0 h -3.09428 q 0.57599,0.68316 0.57599,1.74138 v 0 0.18753 h 4.2463 v 0.48223 h -2.41117 v 1.92891 h -0.66973 v 0.48223 h -0.29471 v 1.92891 h -1.05823 v 0.48222 h -2.31737 v 1.44669 h 1.05823 v 0.96445 h -7.90315 v 0.48223 h 9.06855 v 0.48223 h -11.09122 v 1.44668 h -1.35294 v 0.48223 h 17.74865 v 1.44668 h -13.70331 v 1.44669 z"
       id="path8"
       inkscape:connector-curvature="0"
       style="fill:#1dc3c3;stroke-width:0.46293861" />
    <path
       d="m 655.73926,613.62494 h -14.87435 v 0.29884 q 0,0.88296 -0.58411,1.65724 v 0 h 13.50238 q -0.69278,0.97804 -2.05117,0.97804 v 0 h -27.98279 v 0.48902 h -7.43038 v 1.46706 h -3.32805 v 1.95607 h 3.32805 v 1.46707 h -0.88295 v 1.46705 h -0.38035 v 0.39394 h 26.01313 q 0.97804,0 1.65723,0.5841 v 0 h 0.20376 q 0.48902,0.39394 0.77428,0.97804 v 0 h -0.58411 q 0.29885,0.39393 0.29885,1.07313 v 0 0.88295 h -0.39393 v 0.48902 h 2.54018 v 1.95608 h -2.25492 v 0.97804 h 0.59769 v 1.46705 h 0.28526 v 0.48903 h 0.88295 v 1.46706 h -1.46706 v 0.48901 h -4.98528 v 1.95609 h -1.1818 v 1.46705 h 7.44397 v 1.95608 h -2.74394 v 1.1818 q 0,0.48902 -0.0951,0.77428 v 0 h -0.20376 q -0.38035,1.07313 -1.16822,1.46706 v 0 h -1.95607 q -0.48902,0.39393 -1.37197,0.39393 v 0 h -26.01313 v 1.07313 h 2.93411 v 0.97804 h 4.40118 v 1.46705 h -9.19628 v 0.97805 h 8.40842 v 1.46705 h -6.35726 v 0.48902 h 4.8902 v 1.95608 h -2.73036 v 1.95608 h 1.2633 v 0.48902 h -0.58411 v 1.95608 h 1.56215 v 0.48902 h -0.67919 v 0.48902 h -1.37198 v 0.97804 h 1.37198 v 0.97804 h -1.37198 v 1.46705 h 4.60494 v 0.48902 h 3.0292 v 0.69278 q 0,0.0951 -0.0543,0.13584 -0.0407,0.0543 -0.0407,0.14943 v 0 h 8.20466 q 0,0.29884 -0.0951,0.48902 v 0 h -13.69255 q -0.19018,0.88294 -1.07313,1.46705 v 0 h 7.03645 q -0.48902,0.39394 -1.35839,0.39394 v 0 h -18.69142 q -0.86937,0 -1.35839,-0.39394 v 0 h -7.14512 q -0.67919,-0.48902 -1.07312,-1.46705 v 0 h 13.59746 q 0,-0.28527 -0.10867,-0.48902 v 0 h -8.10958 v -0.97805 h -3.0292 v -0.48902 h -4.60494 v -1.46705 h 1.37198 v -0.97804 h -1.37198 v -0.97804 h 1.37198 v -0.48902 h 0.67919 v -0.48902 h -1.56215 v -1.95608 h 0.58411 v -0.48902 h -1.2633 v -1.95608 h 2.73036 v -1.95608 h -4.8902 v -0.48902 h 6.35726 v -1.46705 h -8.40842 v -0.97805 h 9.19628 v -1.46705 h -4.40117 v -0.97804 h -2.93412 v -1.46706 h 1.95608 v -1.46706 h 0.19017 V 640.032 h 2.74394 v -1.95608 h -7.43039 v -1.46705 h 1.16821 v -1.95609 h 4.98529 v -0.48901 h 1.46705 v -1.46706 h -0.86936 v -0.48903 h -0.29885 v -1.46705 h -0.58411 v -0.97804 h 2.24135 v -1.95608 h -2.54019 v -0.48902 h 0.39393 v -1.95608 h 0.48902 v -0.97804 h -0.19017 v -0.97804 h 0.38035 v -1.46705 h 0.88295 v -1.46707 h -3.32805 v -1.95607 h 3.32805 v -1.46706 h 7.43038 v -1.46706 h -13.48879 v -1.95608 h 14.86076 v -1.46706 h -14.37174 v -0.97804 h 0.39393 v -0.97804 h 8.31333 v -1.95608 h -3.62689 v -1.95608 h 1.67082 v -1.95607 h -2.55377 v -1.95608 h 0.29884 v -1.46706 h -0.88295 v -1.46706 h 0.48902 v -0.39393 q 0,-0.38035 0.0951,-0.58411 v 0 h -3.91216 q 0.10867,-0.48902 0.35318,-0.82861 0.24451,-0.3396 0.52977,-0.63845 v 0 h -0.77428 q 0.77428,-0.58411 1.65723,-0.58411 v 0 h 49.2959 q 0.97804,0 1.65724,0.58411 v 0 h 0.78786 q 0.67919,0.48902 0.97804,1.46706 v 0 h 3.81707 q 0.0951,0.20376 0.0951,0.58411 v 0 0.39393 h -0.48901 v 1.46706 h 0.88295 v 1.46706 H 645.565 v 1.95608 h 2.54019 v 1.95607 h -1.65724 v 1.95608 h 3.61331 v 1.95608 h -8.31333 v 0.97804 H 641.354 v 0.97804 h 14.38533 z m 12.90468,45.47883 v 1.95607 h 12.61942 v 1.46707 h -13.69254 q -0.19018,1.37196 -1.27689,1.95607 v 0 h 5.67806 q -0.48901,0.39394 -1.37197,0.39394 v 0 h -17.0206 q -0.97804,0 -1.46706,-0.39394 v 0 h -5.56939 q -1.07313,-0.58411 -1.27688,-1.95607 v 0 h 13.69255 v -1.46707 H 646.3528 v -1.95607 h -1.76591 v -1.46706 h 13.88273 v -1.46706 h -17.98506 v -0.48902 h 1.35839 v -1.46706 h 11.24745 v -0.48902 h -9.1827 v -0.48902 h 8.01449 v -0.97804 h -1.07313 v -1.46706 h 2.35001 v -0.48902 h 1.07313 v -1.95607 h 0.28526 v -0.48902 h 0.69278 v -1.95608 h 2.44509 v -0.48902 h -4.30608 v -0.19018 q 0,-0.88295 0.67919,-1.7659 v 0 h 3.23296 q 0.78787,-0.88295 1.95608,-0.88295 v 0 h 17.0206 q 1.2633,0 1.95608,0.88295 v 0 h -3.13787 q 0.59769,0.69278 0.59769,1.7659 v 0 0.19018 h 4.2925 v 0.48902 h -2.4451 v 1.95608 h -0.67919 v 0.48902 h -0.29885 v 1.95607 h -1.07312 v 0.48902 h -2.35001 v 1.46706 h 1.08671 v 0.97804 h -8.02807 v 0.48902 h 9.19628 v 0.48902 h -11.24745 v 1.46706 h -1.37197 v 0.48902 h 17.99864 v 1.46706 h -13.88273 v 1.46706 z m 73.65179,-28.85216 v 1.46706 h 18.37899 v 0.48901 h -4.98528 v 1.95609 h -7.9194 v 1.95607 h -0.6792 v 0.48903 h 0.86937 v 1.95607 H 742.581 v 0.48902 q 0,0.39393 -0.0407,0.73353 -0.0543,0.3396 -0.0543,0.73353 v 0 h 3.91216 q 0,0.39393 -0.0407,0.73353 -0.0543,0.33959 -0.0543,0.73353 v 0 h -2.05117 l -0.29884,1.95608 h 1.56215 q -0.0951,0.20376 -0.0951,0.48902 0,0.29884 -0.0951,0.48902 v 0 h 1.16821 q -0.0951,0.48902 -0.19017,0.97804 -0.0951,0.48901 -0.19017,0.97803 v 0 h 0.0951 q -0.0951,0.48902 -0.20376,0.97805 -0.0951,0.48902 -0.28526,0.97803 v 0 h 0.39393 q 0,0.0951 -0.20376,0.48902 v 0 h 0.48902 q -0.19017,0.48902 -0.39393,0.97804 -0.19018,0.48902 -0.38035,0.97804 v 0 h -0.29885 l -0.78786,1.46706 h -0.19018 l -0.88295,1.46706 h 0.29885 q -0.29885,0.39393 -0.58411,0.73353 -0.29885,0.3396 -0.48902,0.73353 v 0 h -1.1818 q -0.39393,0.5841 -0.77428,0.97804 v 0 h -0.88295 l -1.46706,1.46706 h 0.19018 l -0.58411,0.48902 h -6.45234 l -0.58411,0.48902 h 0.58411 l -1.27689,0.97804 h 5.96333 l -0.77429,0.48902 h 4.98529 q -0.88296,0.48901 -1.76591,0.97803 -0.86937,0.48902 -1.8474,0.97805 v 0 h -1.95609 q -0.29884,0.0951 -0.59769,0.20375 -0.28525,0.0951 -0.5841,0.28527 v 0 h 3.81707 q -0.39394,0.0951 -0.67919,0.20375 -0.29885,0.0951 -0.59769,0.28526 v 0 h -12.90484 q -0.6792,0.29885 -1.52139,0.54336 -0.82862,0.24451 -1.71158,0.43468 v 0 h 9.88907 q -1.27688,0.29885 -2.59452,0.54336 -1.31764,0.24451 -2.68961,0.43468 v 0 h -11.83156 q -1.57573,0.20376 -3.28729,0.29885 -1.71158,0.0951 -3.36881,0.0951 v 0 q -1.7659,0 -3.42313,-0.0951 -1.65724,-0.0951 -3.32806,-0.29885 v 0 h 11.83156 q -1.35838,-0.19017 -2.68961,-0.43468 -1.31763,-0.24451 -2.58093,-0.54336 v 0 h -9.88907 q -0.86936,-0.19017 -1.65723,-0.43468 -0.78787,-0.24451 -1.56214,-0.54336 v 0 h 12.80959 q -0.29885,-0.19017 -0.63844,-0.28526 -0.3396,-0.10867 -0.63844,-0.20375 v 0 H 700.634 l -1.08671,-0.48902 h 2.06475 q -0.97804,-0.48903 -1.86099,-0.97805 -0.88295,-0.48902 -1.76591,-0.97803 v 0 h -4.89019 q -0.19017,-0.19018 -0.3396,-0.28527 -0.14942,-0.10867 -0.3396,-0.20375 v 0 h -5.96332 q -0.39393,-0.19018 -0.69277,-0.48902 -0.28527,-0.28527 -0.58411,-0.48902 v 0 h -0.58411 l -0.58411,-0.48902 h 6.45235 l -0.58411,-0.48902 h -0.10867 l -1.46706,-1.46706 h 0.97804 l -0.86937,-0.97804 h 1.07313 l -0.97804,-1.46706 h -0.29885 l -0.88295,-1.46706 h 0.20376 q -0.20376,-0.39393 -0.3396,-0.73353 -0.14942,-0.3396 -0.35318,-0.73353 v 0 h 0.20376 q -0.20376,-0.48902 -0.39394,-0.97804 -0.19017,-0.48902 -0.39393,-0.97804 v 0 h -0.39393 l -0.19017,-0.48902 h -0.39394 q -0.39393,-0.88295 -0.5841,-1.95608 v 0 h -0.19018 q -0.10867,-0.48902 -0.20376,-0.97803 -0.0951,-0.48902 -0.19017,-0.97804 v 0 h 0.48902 q -0.0951,-0.19018 -0.0951,-0.48902 0,-0.28526 -0.10867,-0.48902 v 0 h 0.69278 l -0.20376,-1.95608 h 0.20376 q -0.0951,-0.39394 -0.0951,-0.73353 0,-0.3396 0,-0.73353 v 0 h -0.78786 v -1.95608 h -4.30609 v -1.95607 h -3.61331 v -0.48903 h 3.12429 v -1.95607 h 8.21825 v -1.95609 h 10.07923 v -0.48901 h -7.93298 v -1.46706 h -2.82545 v -1.46706 h -3.42313 v -1.46706 h -4.11592 v -1.95608 h 4.11592 v -3.42313 h 1.07312 v -0.97805 h 0.48902 v -0.48902 h 0.28526 v -1.95607 h -0.86937 v -0.97805 h 0.48902 v -0.48901 H 683.5183 V 615.092 h -1.08672 v -0.97804 h -7.52547 v -0.97804 h -8.80237 v -0.97804 h 24.05705 v -0.48902 h -7.13154 v -1.95608 h 1.65723 v -0.97804 h -1.0731 v -1.46705 h 10.66334 v -1.95608 h -15.94747 v -0.48902 h 10.9486 v -0.97804 h -5.37921 v -0.97804 h -2.24134 v -0.97804 h 7.2402 v -1.95608 h -4.30608 v -0.48902 h -0.20376 v -0.39393 q 0,-0.77428 0.20376,-1.07313 v 0 h -0.58411 q 0.67919,-1.56215 2.4451,-1.56215 v 0 h 19.16685 q 1.65724,0 2.35001,1.56215 v 0 h 0.58411 q 0.28526,0.39393 0.28526,1.07313 v 0 0.39393 h 0.20376 v 0.48902 h 4.30609 v 1.95608 h -7.24021 v 0.97804 h 2.24134 v 0.97804 h 5.37922 v 0.97804 h -10.94861 v 0.48902 h 15.94747 v 1.95608 h -10.66334 v 1.46705 h 1.07313 v 0.97804 h -1.65724 v 1.95608 h 14.95585 v -1.95608 h 0.88296 v -0.97804 h 4.59135 v -1.46705 h 7.63414 v -1.95608 h -8.21825 v -0.48902 h -6.45234 v -0.97804 h 1.46705 v -0.97804 h 7.72923 v -0.97804 h -4.70002 v -1.95608 h -2.14625 v -0.48902 h -2.05117 v -0.39393 q 0,-0.77428 0.19018,-1.07313 v 0 h 2.14625 q 0.69278,-1.56215 2.4451,-1.56215 v 0 h 19.18043 q 1.75232,0 2.4451,1.56215 v 0 h -2.25492 q 0.29885,0.39393 0.29885,1.07313 v 0 0.39393 h 2.05116 v 0.48902 h 2.14625 v 1.95608 h 4.70002 v 0.97804 H 746.792 v 0.97804 h -1.46706 v 0.97804 h 6.45234 v 0.48902 h 8.21825 v 1.95608 h -7.63414 v 1.46705 h -4.59135 v 0.97804 h -0.88296 v 1.95608 h -10.17432 v 0.48902 h 10.26941 v 0.97804 h -4.98528 v 0.97804 h -6.84628 v 0.97804 h 7.14512 v 1.95608 h 3.91216 v 0.48901 h 2.35001 v 0.97805 h 0.38035 v 1.95607 h -1.16821 v 0.48902 h -0.0951 v 0.97805 h 0.77428 v 1.95607 h 1.1818 v 1.46706 h 0.28526 v 1.95608 h -7.82431 v 1.46706 h 3.53181 v 1.46706 z m -30.90332,-1.46706 v 1.46706 h 2.82545 v 1.46706 h 3.62689 v -1.46706 h 3.32805 v -1.46706 h -3.53181 v -1.46706 h 7.82432 v -1.95608 h -0.28526 v -1.46706 h -1.1818 v -1.95607 h -0.77428 v -0.97805 h 0.0951 v -0.48902 h 1.16821 v -1.95607 h -0.38035 v -0.97805 h -2.35001 v -0.48901 h -3.91216 V 615.092 h -7.14512 v -0.97804 h 6.84628 v -0.97804 h 4.98528 v -0.97804 h -31.97645 v 0.97804 h 8.80235 v 0.97804 h 7.52547 v 0.97804 h 1.08671 v 1.95608 h 1.46706 v 0.48901 h -0.48902 v 0.97805 h 0.86937 v 1.95607 h -0.28526 v 0.48902 h -0.48902 v 0.97805 h -1.07313 v 3.42313 h -4.11591 v 1.95608 h 4.11591 v 1.46706 z m 19.84605,5.37922 v -1.95609 h 4.98528 v -0.48901 h -14.0729 v 0.48901 h -10.07923 v 1.95609 h -8.21825 v 1.95607 h -3.1243 v 0.48903 h 3.61332 v 1.95607 h 4.30609 v 0.0951 q 0,0.48902 0,0.93728 0,0.43469 0.0951,0.92371 v 0 h 0.78787 l 0.28526,1.46706 h -0.0951 q 0.20376,0.97804 1.07313,1.95608 v 0 h -0.67919 q 0.39393,0.5841 0.97803,0.97804 v 0 h -0.48902 q 1.65724,1.27688 4.70002,1.27688 v 0 q 2.93412,0 4.59136,-1.27688 v 0 h -1.07313 q 0.58411,-0.39394 0.97804,-0.97804 v 0 h -1.46706 q 0.58411,-0.77428 1.07313,-1.95608 v 0 h 2.05117 q 0.20375,-0.39394 0.24451,-0.73353 0.0543,-0.3396 0.14942,-0.73353 v 0 h -3.91216 q 0.0951,-0.48902 0.14942,-0.92371 0.0407,-0.44826 0.0407,-0.93728 v 0 -0.0951 h 5.37922 v -1.95607 h -0.86937 v -0.48903 h 0.67919 v -1.95607 z m 40.88747,24.94 v 1.95607 h 12.61943 v 1.46707 H 771.0528 q -0.20375,1.37196 -1.27688,1.95607 v 0 h 5.67807 q -0.48903,0.39394 -1.37198,0.39394 v 0 h -17.0206 q -0.97804,0 -1.46706,-0.39394 v 0 h -5.56939 q -1.08671,-0.58411 -1.27689,-1.95607 v 0 h 13.69256 v -1.46707 H 749.8212 v -1.95607 h -1.75232 v -1.46706 h 13.88273 v -1.46706 h -17.99864 v -0.48902 h 1.37197 v -1.46706 h 11.24745 v -0.48902 h -9.19628 v -0.48902 h 8.02807 v -0.97804 h -1.08671 v -1.46706 h 2.35001 v -0.48902 h 1.07313 v -1.95607 h 0.29884 v -0.48902 h 0.67919 v -1.95608 h 2.4451 v -0.48902 h -4.2925 v -0.19018 q 0,-0.88295 0.67919,-1.7659 v 0 h 3.23297 q 0.77427,-0.88295 1.95607,-0.88295 v 0 h 17.00702 q 1.27688,0 1.95608,0.88295 v 0 h -3.1243 q 0.58411,0.69278 0.58411,1.7659 v 0 0.19018 h 4.30609 v 0.48902 h -2.4451 v 1.95608 h -0.67919 v 0.48902 h -0.29884 v 1.95607 h -1.07313 v 0.48902 h -2.35001 v 1.46706 h 1.07312 v 0.97804 h -8.01448 v 0.48902 h 9.19628 v 0.48902 h -11.24745 v 1.46706 h -1.37197 v 0.48902 h 17.99864 v 1.46706 h -13.89631 v 1.46706 z"
       id="path6"
       inkscape:connector-curvature="0"
       style="fill:#c32215;stroke-width:0.46293861" />
  </g>
</svg>
